<?xml version="1.0" encoding="utf-8"?>
<svg viewBox="177.2127 138.2441 645.8975 645.8985" width="645.8975" height="645.8985" xmlns="http://www.w3.org/2000/svg">
  <g id="g11987" transform="matrix(1.3333330154418945, 0, 0, -1.3333330154418945, 728.5202439596761, 232.83308261079952)">
    <path d="m 0,0 c 94.59,-94.59 94.59,-247.949 0,-342.539 -94.59,-94.591 -247.949,-94.591 -342.539,0 -94.589,94.59 -94.589,247.949 0,342.539 C -247.949,94.589 -94.59,94.589 0,0" style="fill:#cccccc;fill-opacity:1;fill-rule:evenodd;stroke:none" id="path11989"/>
  </g>
  <g id="g11991" transform="matrix(1.3333330154418945, 0, 0, -1.3333330154418945, 713.7547038602644, 247.59935513191158)">
    <path d="m 0,0 c 88.475,-88.473 88.475,-231.917 0,-320.389 -88.474,-88.474 -231.916,-88.474 -320.39,0 -88.473,88.472 -88.473,231.916 0,320.389 C -231.916,88.473 -88.474,88.473 0,0" style="fill-opacity: 1; fill-rule: evenodd; stroke: none; fill: rgb(178, 175, 175);" id="path11993"/>
  </g>
  <g id="g11995" transform="matrix(1.3333330154418945, 0, 0, -1.3333330154418945, 661.1270308608074, 300.2282488342026)">
    <path d="m 0,0 c 66.674,-66.673 66.674,-174.772 0,-241.446 -66.674,-66.674 -174.773,-66.674 -241.447,0 -66.675,66.674 -66.675,174.773 0,241.446 C -174.773,66.674 -66.674,66.674 0,0" style="fill-opacity: 1; fill-rule: evenodd; stroke: none; fill: rgb(162, 212, 236);" id="path11997"/>
  </g>
</svg>